<?xml version="1.0" standalone="no"?><!DOCTYPE svg PUBLIC "-//W3C//DTD SVG 1.1//EN" "http://www.w3.org/Graphics/SVG/1.1/DTD/svg11.dtd"><svg t="1589720620555" class="icon" viewBox="0 0 1024 1024" version="1.1" xmlns="http://www.w3.org/2000/svg" p-id="13081" xmlns:xlink="http://www.w3.org/1999/xlink" width="200" height="200"><defs><style type="text/css"></style></defs><path d="M1020.928 882.688v22.528c0 118.784-150.528 118.784-363.008 118.784H429.568c-221.184 0-363.008 0-363.008-118.784v-22.528c0-139.264 61.44-205.312 164.864-234.496 146.432 172.544 405.504 193.536 578.048 46.592 16.896-14.336 32.256-30.208 46.592-46.592 103.424 29.184 164.864 95.744 164.864 234.496zM543.744 33.792c191.488-0.512 347.648 154.112 348.16 345.6s-154.112 347.648-345.6 348.16c-191.488 0.512-347.648-154.112-348.16-345.6v-1.024c-0.512-191.488 153.6-347.136 345.6-347.136-0.512 0-0.512 0 0 0-0.512 0 0 0 0 0z" fill="#9DF7D2" p-id="13082"></path><path d="M620.032 1018.368H391.68c-113.664 0-202.752 0-267.776-15.36-74.752-17.408-111.104-56.832-111.104-119.808v-22.528c0-136.192 55.808-215.04 176.64-249.344l10.24-3.072 7.168 8.192c141.312 164.864 389.12 184.32 554.496 43.52 15.36-13.312 30.208-27.648 43.52-43.52l7.168-8.192 10.24 3.072c120.32 34.304 176.64 113.152 176.64 249.344v22.528c0 62.976-37.376 101.888-114.688 119.808-66.048 15.36-157.696 15.36-264.192 15.36z m-431.104-371.2c-97.792 31.232-141.824 97.28-141.824 214.016v22.528c0 96.768 112.128 101.376 344.576 101.376h228.352c226.816 0 345.088-4.608 345.088-101.376v-22.528c0-116.224-44.032-182.784-141.824-214.016-157.696 175.104-427.52 189.44-602.624 31.744-11.264-10.24-22.016-20.48-31.744-31.744z m316.928 75.776c-199.68 0-361.472-161.792-361.472-361.472S306.176 0 505.856 0s361.472 161.792 361.472 361.472-161.792 361.472-361.472 361.472z m0-689.152c-181.248 0-327.68 146.944-327.68 327.68s146.944 327.68 327.68 327.68 327.68-146.944 327.68-327.68-146.432-327.68-327.68-327.68z m251.392 266.24c-7.68 0-14.336-5.12-16.384-12.288 0-0.512-14.336-52.224-40.448-81.408-25.088-28.16-64.512-39.424-65.024-39.424-9.216-2.56-14.336-11.264-12.288-20.48 2.56-9.216 11.264-14.336 20.48-12.288 2.048 0.512 49.664 13.312 81.92 49.152 31.232 35.328 47.104 92.672 47.616 95.232 2.56 8.704-3.072 17.92-11.776 20.48-1.024 1.024-2.56 1.024-4.096 1.024z" fill="#3BB3B8" p-id="13083"></path></svg>